<svg width="100" height="100" viewBox="0 0 100 100" fill="none" xmlns="http://www.w3.org/2000/svg">
<rect width="100" height="100" fill="white" fill-opacity="0"/>
<circle cx="50" cy="50" r="45" stroke="#4CAF50" stroke-width="6"/>
<path d="M50 5L50 95" stroke="#4CAF50" stroke-width="3" stroke-linecap="round"/>
<path d="M25 15L75 85" stroke="#4CAF50" stroke-width="3" stroke-linecap="round"/>
<path d="M75 15L25 85" stroke="#4CAF50" stroke-width="3" stroke-linecap="round"/>
<path d="M50 5C30 5 15 25 15 50C15 75 30 95 50 95" stroke="#4CAF50" stroke-width="3" stroke-linecap="round"/>
<path d="M50 5C70 5 85 25 85 50C85 75 70 95 50 95" stroke="#4CAF50" stroke-width="3" stroke-linecap="round"/>

<!-- Imposter Hat and Eye -->
<path d="M30 40 L70 40 L65 20 L35 20 L30 40 Z" fill="#333333"/>
<circle cx="50" cy="30" r="5" fill="#FFFFFF"/>
<circle cx="50" cy="30" r="2" fill="#000000"/>
</svg>
